# xmcd
#
# Track frame offsets:
#	150
#	17980
#	34082
#	54107
#	73940
#	91900
#	107492
#	122090
#	137235
#	157310
#	172392
#
# Disc length: 2510 seconds
#
# Revision: 1
# Processed by: cddbd v1.4PL0 Copyright (c) Steve Scherf et al.
# Submitted via: audiograbber 1.81.03
#
DISCID=9d09cc0b
DTITLE=Kassie DePaiva - Naked
DYEAR=2000
DGENRE=Country
TTITLE0=You Hung the Moon
TTITLE1=Weakness In Me
TTITLE2=Simply Love
TTITLE3=Lose Again
TTITLE4=A Lesson I'll Never Learn
TTITLE5=The Moon Is a Harsh Mistress
TTITLE6=It's Me
TTITLE7=Natural History
TTITLE8=You've Got to Give Me Room
TTITLE9=All These Years
TTITLE10=Some People's Lives
EXTD=
EXTT0=
EXTT1=
EXTT2=
EXTT3=
EXTT4=
EXTT5=
EXTT6=
EXTT7=
EXTT8=
EXTT9=
EXTT10=
PLAYORDER=
